<?xml version="1.0" encoding="UTF-8" standalone="no"?>
<!-- Generator: Adobe Illustrator 16.0.0, SVG Export Plug-In . SVG Version: 6.00 Build 0)  -->

<svg
   xmlns:dc="http://purl.org/dc/elements/1.1/"
   xmlns:cc="http://creativecommons.org/ns#"
   xmlns:rdf="http://www.w3.org/1999/02/22-rdf-syntax-ns#"
   xmlns:svg="http://www.w3.org/2000/svg"
   xmlns="http://www.w3.org/2000/svg"
   xmlns:sodipodi="http://sodipodi.sourceforge.net/DTD/sodipodi-0.dtd"
   xmlns:inkscape="http://www.inkscape.org/namespaces/inkscape"
   version="1.1"
   id="Capa_1"
   x="0px"
   y="0px"
   width="970.504px"
   height="970.503px"
   viewBox="0 0 970.504 970.503"
   style="enable-background:new 0 0 970.504 970.503;"
   xml:space="preserve"
   inkscape:version="0.91 r13725"
   sodipodi:docname="downArrow.svg"><metadata
     id="metadata43"><rdf:RDF><cc:Work
         rdf:about=""><dc:format>image/svg+xml</dc:format><dc:type
           rdf:resource="http://purl.org/dc/dcmitype/StillImage" /></cc:Work></rdf:RDF></metadata><defs
     id="defs41" /><sodipodi:namedview
     pagecolor="#ffffff"
     bordercolor="#666666"
     borderopacity="1"
     objecttolerance="10"
     gridtolerance="10"
     guidetolerance="10"
     inkscape:pageopacity="0"
     inkscape:pageshadow="2"
     inkscape:window-width="1536"
     inkscape:window-height="801"
     id="namedview39"
     showgrid="false"
     inkscape:zoom="0.24317287"
     inkscape:cx="-26.729436"
     inkscape:cy="485.2515"
     inkscape:window-x="-8"
     inkscape:window-y="-8"
     inkscape:window-maximized="1"
     inkscape:current-layer="Capa_1" /><g
     id="g3"
     transform="matrix(1,0,0,-1,0,970.504)"><path
       d="m 120.027,962.802 c 26.6,0 53.5,-8.801 75.7,-27 l 288.1,-234.7 290.899,237 c 22.301,18.1 49.101,27 75.7,27 34.8,0 69.4,-15.101 93.101,-44.2 41.899,-51.4 34.1,-127 -17.2,-168.8 l -366.7,-298.8 c -44.1,-36 -107.5,-36 -151.6,0 l -363.8,296.5 c -51.4,41.8 -59.1,117.399 -17.3,168.8 23.8,29.1 58.3,44.2 93.1,44.2 z"
       id="path5"
       inkscape:connector-curvature="0" /><path
       d="m 120.027,541.902 c 26.6,0 53.5,-8.8 75.7,-27 l 288.1,-234.7 290.899,237 c 22.301,18.101 49.101,27 75.7,27 34.8,0 69.4,-15.1 93.101,-44.2 41.899,-51.399 34.1,-127 -17.2,-168.8 l -366.7,-298.8 c -44.1,-36 -107.5,-36 -151.6,0 l -363.8,296.4 c -51.4,41.9 -59.1,117.5 -17.3,168.9 23.8,29.1 58.3,44.2 93.1,44.2 z"
       id="path7"
       inkscape:connector-curvature="0" /></g><g
     id="g9"
     transform="matrix(1,0,0,-1,0,970.504)" /><g
     id="g11"
     transform="matrix(1,0,0,-1,0,970.504)" /><g
     id="g13"
     transform="matrix(1,0,0,-1,0,970.504)" /><g
     id="g15"
     transform="matrix(1,0,0,-1,0,970.504)" /><g
     id="g17"
     transform="matrix(1,0,0,-1,0,970.504)" /><g
     id="g19"
     transform="matrix(1,0,0,-1,0,970.504)" /><g
     id="g21"
     transform="matrix(1,0,0,-1,0,970.504)" /><g
     id="g23"
     transform="matrix(1,0,0,-1,0,970.504)" /><g
     id="g25"
     transform="matrix(1,0,0,-1,0,970.504)" /><g
     id="g27"
     transform="matrix(1,0,0,-1,0,970.504)" /><g
     id="g29"
     transform="matrix(1,0,0,-1,0,970.504)" /><g
     id="g31"
     transform="matrix(1,0,0,-1,0,970.504)" /><g
     id="g33"
     transform="matrix(1,0,0,-1,0,970.504)" /><g
     id="g35"
     transform="matrix(1,0,0,-1,0,970.504)" /><g
     id="g37"
     transform="matrix(1,0,0,-1,0,970.504)" /></svg>